<?xml version="1.0" encoding="UTF-8" standalone="no"?>
<!-- Created with Inkscape (http://www.inkscape.org/) -->

<svg
   width="26.5mm"
   height="26.5mm"
   viewBox="0 0 26.5 26.5"
   version="1.1"
   id="svg2947"
   sodipodi:docname="warp_block.svg"
   inkscape:version="1.2.1 (9c6d41e, 2022-07-14)"
   xml:space="preserve"
   xmlns:inkscape="http://www.inkscape.org/namespaces/inkscape"
   xmlns:sodipodi="http://sodipodi.sourceforge.net/DTD/sodipodi-0.dtd"
   xmlns:xlink="http://www.w3.org/1999/xlink"
   xmlns="http://www.w3.org/2000/svg"
   xmlns:svg="http://www.w3.org/2000/svg"><sodipodi:namedview
     id="namedview2949"
     pagecolor="#ffffff"
     bordercolor="#000000"
     borderopacity="0.25"
     inkscape:showpageshadow="2"
     inkscape:pageopacity="0.0"
     inkscape:pagecheckerboard="0"
     inkscape:deskcolor="#d1d1d1"
     inkscape:document-units="mm"
     showgrid="false"
     inkscape:zoom="2.7006874"
     inkscape:cx="50.727825"
     inkscape:cy="41.470923"
     inkscape:window-width="1168"
     inkscape:window-height="762"
     inkscape:window-x="0"
     inkscape:window-y="25"
     inkscape:window-maximized="0"
     inkscape:current-layer="layer1" /><defs
     id="defs2944"><clipPath
       clipPathUnits="userSpaceOnUse"
       id="clipPath3358"><rect
         style="fill:#d40000;stroke-width:13.0772;stroke-linecap:square;stroke-linejoin:round;paint-order:fill markers stroke"
         id="rect3360"
         width="20.613043"
         height="15.277903"
         x="5.9414062"
         y="5.5776463"
         ry="0.36445081" /></clipPath><clipPath
       clipPathUnits="userSpaceOnUse"
       id="clipPath3362"><path
         id="path3364"
         style="fill:#fbd9b6;stroke-width:13;stroke-linecap:square;stroke-linejoin:round;paint-order:fill markers stroke"
         d="m -29.784172,11.488358 h 6.904705 c 0.201906,0 0.364451,0.162545 0.364451,0.364451 v 8.486443 c 0,0.201906 -0.162545,0.364451 -0.364451,0.364451 h -6.904705 c -0.201906,0 -0.364451,-0.162545 -0.364451,-0.364451 v -8.486443 c 0,-0.201906 0.162545,-0.364451 0.364451,-0.364451 z" /></clipPath><filter
       style="color-interpolation-filters:sRGB;"
       inkscape:label="Color Shift"
       id="filter10472"
       x="0"
       y="0"
       width="1"
       height="1"><feColorMatrix
         type="hueRotate"
         values="175"
         result="color1"
         id="feColorMatrix10468" /><feColorMatrix
         type="saturate"
         values="0.6"
         result="color2"
         id="feColorMatrix10470" /></filter><clipPath
       clipPathUnits="userSpaceOnUse"
       id="clipPath10597"><rect
         style="fill:#0091ff;fill-opacity:1;stroke-width:11.6018;stroke-linecap:square;stroke-linejoin:round;paint-order:fill markers stroke"
         id="rect10599"
         width="28.734234"
         height="47.25185"
         x="-66.727272"
         y="-26.18008"
         ry="0.36445081"
         transform="rotate(53.817195)" /></clipPath><linearGradient
       inkscape:collect="always"
       xlink:href="#linearGradient4871"
       id="linearGradient4877"
       x1="242.42188"
       y1="-193.35352"
       x2="348.27344"
       y2="-193.74414"
       gradientUnits="userSpaceOnUse"
       gradientTransform="matrix(1.0959003,0,0,1.0959003,36.907928,303.69891)" /><linearGradient
       inkscape:collect="always"
       id="linearGradient4871"><stop
         style="stop-color:#6500a1;stop-opacity:1"
         offset="0"
         id="stop4873" /><stop
         id="stop4881"
         offset="0.38164923"
         style="stop-color:#ff0000;stop-opacity:0.74901961;" /><stop
         id="stop4879"
         offset="0.59132582"
         style="stop-color:#ff7900;stop-opacity:1" /><stop
         style="stop-color:#faef00;stop-opacity:1"
         offset="1"
         id="stop4875" /></linearGradient><linearGradient
       inkscape:collect="always"
       xlink:href="#linearGradient4863"
       id="linearGradient4869"
       x1="281.39761"
       y1="-142.6924"
       x2="347.10156"
       y2="-145.25586"
       gradientUnits="userSpaceOnUse"
       gradientTransform="matrix(1.0959003,0,0,1.0959003,36.907928,303.69891)" /><linearGradient
       inkscape:collect="always"
       id="linearGradient4863"><stop
         style="stop-color:#2400ff;stop-opacity:1"
         offset="0"
         id="stop4865" /><stop
         id="stop4915"
         offset="0.55643445"
         style="stop-color:#1fee00;stop-opacity:1" /><stop
         style="stop-color:#faef00;stop-opacity:1"
         offset="1"
         id="stop4867" /></linearGradient><linearGradient
       inkscape:collect="always"
       xlink:href="#linearGradient4855"
       id="linearGradient4861"
       x1="242.42188"
       y1="-144.47461"
       x2="290.46869"
       y2="-143.76172"
       gradientUnits="userSpaceOnUse"
       gradientTransform="matrix(1.0959003,0,0,1.0959003,36.907928,303.69891)" /><linearGradient
       inkscape:collect="always"
       id="linearGradient4855"><stop
         style="stop-color:#6500a1;stop-opacity:1"
         offset="0"
         id="stop4857" /><stop
         id="stop4911"
         offset="0.5756458"
         style="stop-color:#6500a1;stop-opacity:1" /><stop
         style="stop-color:#2400ff;stop-opacity:1"
         offset="1"
         id="stop4913" /></linearGradient></defs><g
     inkscape:label="Layer 1"
     inkscape:groupmode="layer"
     id="layer1"><g
       id="g3430"
       transform="matrix(1.0494618,0,0,1.4269662,-1.4642427,-4.8963086)" /><g
       transform="matrix(0.18122025,0,0,0.18122025,-52.792511,-9.8580534)"
       id="g4768"><path
         sodipodi:nodetypes="ccccc"
         style="opacity:1;fill:url(#linearGradient4877);fill-opacity:1;stroke:#000000;stroke-width:3;stroke-linecap:round;stroke-linejoin:round;stroke-miterlimit:4;stroke-dasharray:none;stroke-dashoffset:0;stroke-opacity:1"
         d="m 364.43229,56.091803 -61.85415,35.71093 61.85415,35.710937 61.85415,-35.710937 z"
         id="path4843"
         inkscape:connector-curvature="0" /><path
         sodipodi:nodetypes="ccccc"
         style="opacity:1;fill:url(#linearGradient4869);fill-opacity:1;stroke:#000000;stroke-width:3;stroke-linecap:round;stroke-linejoin:round;stroke-miterlimit:4;stroke-dasharray:none;stroke-dashoffset:0;stroke-opacity:1"
         d="m 426.28644,91.802733 -61.85415,35.710937 v 71.42189 l 61.85415,-35.71095 z"
         id="path4845"
         inkscape:connector-curvature="0" /><path
         id="path4853"
         d="m 302.57814,91.802733 61.85416,35.710937 v 71.42189 l -61.85416,-35.71095 z"
         style="opacity:1;fill:url(#linearGradient4861);fill-opacity:1;stroke:#000000;stroke-width:3;stroke-linecap:round;stroke-linejoin:round;stroke-miterlimit:4;stroke-dasharray:none;stroke-dashoffset:0;stroke-opacity:1"
         inkscape:connector-curvature="0" /><g
         id="g4711"
         transform="matrix(0.51584091,-0.31492328,0,0.63550812,186.72378,99.342918)"><path
           style="fill:#ffffff;fill-opacity:1;fill-rule:evenodd;stroke:#000000;stroke-width:3;stroke-linecap:butt;stroke-linejoin:miter;stroke-miterlimit:3.8;stroke-dasharray:none;stroke-opacity:0.988235"
           d="m 382.36523,264.32345 -0.96245,-0.9725 -0.13749,-18.31554 7.83747,-8.59047 39.73724,-0.16209 7.425,9.07673 0.13749,23.34016 -7.56249,9.23881 h -10.44993 l -0.96245,1.29668 0.13749,10.21132 -0.82505,1.29667 H 401.2027 l -0.82505,-1.13459 -0.13749,-16.20845 7.56248,-9.07673 h 10.44994 l 1.10004,-1.13458 -0.1375,-12.15633 -0.68756,-1.1346 -19.11236,0.16209 -0.96255,1.29667 0.13749,11.99425 -1.23743,1.29668 z"
           id="path4699"
           inkscape:connector-curvature="0" /><path
           style="fill:#ffffff;fill-opacity:1;fill-rule:evenodd;stroke:#000000;stroke-width:3;stroke-linecap:butt;stroke-linejoin:miter;stroke-miterlimit:3.8;stroke-dasharray:none;stroke-opacity:0.988235"
           d="m 417.29013,296.41618 -1.23753,-1.45876 -14.57491,0.16208 -1.23753,1.29668 0.13749,10.85965 0.96255,1.29669 14.98738,-0.16209 0.96255,-0.81042 z"
           id="path4701"
           inkscape:connector-curvature="0" /></g><g
         transform="matrix(0.42830386,0.28526703,-0.5480542,0.44865717,338.27215,-147.58497)"
         id="g4724"><path
           inkscape:connector-curvature="0"
           id="path4726"
           d="m 382.36523,264.32345 -0.96245,-0.9725 -0.13749,-18.31554 7.83747,-8.59047 39.73724,-0.16209 7.425,9.07673 0.13749,23.34016 -7.56249,9.23881 h -10.44993 l -0.96245,1.29668 0.13749,10.21132 -0.82505,1.29667 H 401.2027 l -0.82505,-1.13459 -0.13749,-16.20845 7.56248,-9.07673 h 10.44994 l 1.10004,-1.13458 -0.1375,-12.15633 -0.68756,-1.1346 -19.11236,0.16209 -0.96255,1.29667 0.13749,11.99425 -1.23743,1.29668 z"
           style="fill:#ffffff;fill-opacity:1;fill-rule:evenodd;stroke:#000000;stroke-width:3;stroke-linecap:butt;stroke-linejoin:miter;stroke-miterlimit:3.8;stroke-dasharray:none;stroke-opacity:0.988235" /><path
           inkscape:connector-curvature="0"
           id="path4728"
           d="m 417.29013,296.41618 -1.23753,-1.45876 -14.57491,0.16208 -1.23753,1.29668 0.13749,10.85965 0.96255,1.29669 14.98738,-0.16209 0.96255,-0.81042 z"
           style="fill:#ffffff;fill-opacity:1;fill-rule:evenodd;stroke:#000000;stroke-width:3;stroke-linecap:butt;stroke-linejoin:miter;stroke-miterlimit:3.8;stroke-dasharray:none;stroke-opacity:0.988235" /></g><g
         transform="matrix(0.50259929,0.31529902,-0.02764864,0.63490639,133.99015,-157.18398)"
         id="g4736"><path
           inkscape:connector-curvature="0"
           id="path4738"
           d="m 382.36523,264.32345 -0.96245,-0.9725 -0.13749,-18.31554 7.83747,-8.59047 39.73724,-0.16209 7.425,9.07673 0.13749,23.34016 -7.56249,9.23881 h -10.44993 l -0.96245,1.29668 0.13749,10.21132 -0.82505,1.29667 H 401.2027 l -0.82505,-1.13459 -0.13749,-16.20845 7.56248,-9.07673 h 10.44994 l 1.10004,-1.13458 -0.1375,-12.15633 -0.68756,-1.1346 -19.11236,0.16209 -0.96255,1.29667 0.13749,11.99425 -1.23743,1.29668 z"
           style="fill:#ffffff;fill-opacity:1;fill-rule:evenodd;stroke:#000000;stroke-width:3;stroke-linecap:butt;stroke-linejoin:miter;stroke-miterlimit:3.8;stroke-dasharray:none;stroke-opacity:0.988235" /><path
           inkscape:connector-curvature="0"
           id="path4740"
           d="m 417.29013,296.41618 -1.23753,-1.45876 -14.57491,0.16208 -1.23753,1.29668 0.13749,10.85965 0.96255,1.29669 14.98738,-0.16209 0.96255,-0.81042 z"
           style="fill:#ffffff;fill-opacity:1;fill-rule:evenodd;stroke:#000000;stroke-width:3;stroke-linecap:butt;stroke-linejoin:miter;stroke-miterlimit:3.8;stroke-dasharray:none;stroke-opacity:0.988235" /></g></g></g></svg>
